<svg width="114" height="33" viewBox="0 0 114 33" fill="none" xmlns="http://www.w3.org/2000/svg">
<rect opacity="0.8" x="0.618896" y="0.545471" width="112.895" height="30.9091" rx="15" fill="#00B850"/>
<path d="M18.8777 26.2728V9.47276H21.9977V23.6328H30.7817V26.2728H18.8777ZM40.8122 26.5128C39.5002 26.5128 38.2922 26.2968 37.1882 25.8648C36.0842 25.4328 35.1242 24.8328 34.3082 24.0648C33.4922 23.2808 32.8602 22.3688 32.4122 21.3288C31.9642 20.2728 31.7402 19.1208 31.7402 17.8728C31.7402 16.6248 31.9642 15.4808 32.4122 14.4408C32.8602 13.3848 33.4922 12.4728 34.3082 11.7048C35.1242 10.9208 36.0842 10.3128 37.1882 9.88077C38.2922 9.44877 39.4922 9.23277 40.7882 9.23277C42.1002 9.23277 43.3002 9.44877 44.3882 9.88077C45.4922 10.3128 46.4522 10.9208 47.2682 11.7048C48.0842 12.4728 48.7162 13.3848 49.1642 14.4408C49.6122 15.4808 49.8362 16.6248 49.8362 17.8728C49.8362 19.1208 49.6122 20.2728 49.1642 21.3288C48.7162 22.3848 48.0842 23.2968 47.2682 24.0648C46.4522 24.8328 45.4922 25.4328 44.3882 25.8648C43.3002 26.2968 42.1082 26.5128 40.8122 26.5128ZM40.7882 23.7768C41.6362 23.7768 42.4202 23.6328 43.1402 23.3448C43.8602 23.0568 44.4842 22.6488 45.0122 22.1208C45.5402 21.5768 45.9482 20.9528 46.2362 20.2488C46.5402 19.5288 46.6922 18.7368 46.6922 17.8728C46.6922 17.0088 46.5402 16.2248 46.2362 15.5208C45.9482 14.8008 45.5402 14.1768 45.0122 13.6488C44.4842 13.1048 43.8602 12.6888 43.1402 12.4008C42.4202 12.1128 41.6362 11.9688 40.7882 11.9688C39.9402 11.9688 39.1562 12.1128 38.4362 12.4008C37.7322 12.6888 37.1082 13.1048 36.5642 13.6488C36.0362 14.1768 35.6202 14.8008 35.3162 15.5208C35.0282 16.2248 34.8842 17.0088 34.8842 17.8728C34.8842 18.7208 35.0282 19.5048 35.3162 20.2248C35.6202 20.9448 36.0362 21.5768 36.5642 22.1208C37.0922 22.6488 37.7162 23.0568 38.4362 23.3448C39.1562 23.6328 39.9402 23.7768 40.7882 23.7768ZM60.9913 26.5128C59.6793 26.5128 58.4713 26.3048 57.3673 25.8888C56.2793 25.4568 55.3273 24.8568 54.5113 24.0888C53.6953 23.3048 53.0633 22.3848 52.6153 21.3288C52.1673 20.2728 51.9433 19.1208 51.9433 17.8728C51.9433 16.6248 52.1673 15.4728 52.6153 14.4168C53.0633 13.3608 53.6953 12.4488 54.5113 11.6808C55.3433 10.8968 56.3113 10.2968 57.4153 9.88077C58.5193 9.44877 59.7273 9.23277 61.0393 9.23277C62.4633 9.23277 63.7433 9.46477 64.8793 9.92876C66.0313 10.3928 66.9993 11.0728 67.7833 11.9688L65.8153 13.8888C65.1593 13.2328 64.4473 12.7528 63.6793 12.4488C62.9273 12.1288 62.0953 11.9688 61.1833 11.9688C60.3033 11.9688 59.4873 12.1128 58.7353 12.4008C57.9833 12.6888 57.3353 13.0968 56.7913 13.6248C56.2473 14.1528 55.8233 14.7768 55.5193 15.4968C55.2313 16.2168 55.0873 17.0088 55.0873 17.8728C55.0873 18.7208 55.2313 19.5048 55.5193 20.2248C55.8233 20.9448 56.2473 21.5768 56.7913 22.1208C57.3353 22.6488 57.9753 23.0568 58.7113 23.3448C59.4473 23.6328 60.2633 23.7768 61.1593 23.7768C61.9913 23.7768 62.7913 23.6488 63.5593 23.3928C64.3433 23.1208 65.0873 22.6728 65.7913 22.0488L67.5673 24.3768C66.6873 25.0808 65.6633 25.6168 64.4953 25.9848C63.3433 26.3368 62.1753 26.5128 60.9913 26.5128ZM64.6153 23.9688V17.6808H67.5673V24.3768L64.6153 23.9688ZM71.6824 26.2728V9.47276H74.8024V26.2728H71.6824ZM79.3465 26.2728V9.47276H81.9145L92.4505 22.4088H91.1785V9.47276H94.2745V26.2728H91.7065L81.1705 13.3368H82.4425V26.2728H79.3465Z" fill="#001409"/>
</svg>
