<svg width="32" height="32" viewBox="0 0 32 32" fill="none" xmlns="http://www.w3.org/2000/svg">
<path d="M10.4687 1.32954C6.94076 3.54545 5.87308 6.91192 7.63707 10.1506C8.93684 12.4091 10.9793 13.6023 13.7182 13.6023C17.8496 13.6023 21.0062 10.321 20.542 6.44317C20.1706 3.20454 16.9676 0.392035 13.7182 0.392035C12.6969 0.392035 11.3507 0.775558 10.4687 1.32954ZM16.2713 3.92897C17.0604 4.52556 17.5711 5.46306 17.7568 6.61363C17.9424 8.01988 17.8032 8.53124 16.7355 9.68181C15.7607 10.7898 15.1572 11.0454 13.7182 11.0454C12.2791 11.0454 11.6757 10.7898 10.7008 9.68181C9.63315 8.53124 9.49389 8.01988 9.67957 6.61363C10.0045 4.52556 11.7221 2.94885 13.7182 2.94885C14.4609 2.94885 15.6214 3.37499 16.2713 3.92897Z" fill="#00682D"/>
<path d="M9.86524 16.1591C6.15159 17.0113 2.94857 19.0568 1.37027 21.5284C0.0240771 23.6591 -0.068764 25.2358 1.18459 26.3863C2.02016 27.1534 2.71647 27.2386 9.07609 27.2386H16.0392V25.9602V24.6818H9.5403C2.25226 24.6818 2.113 24.5966 4.43403 22.0398C6.94074 19.2699 11.9077 17.821 15.9928 18.6733C17.6639 19.0142 18.2209 18.9716 19.1029 18.375C19.7064 17.9915 20.217 17.5227 20.217 17.3523C20.2634 16.3721 12.8362 15.4773 9.86524 16.1591Z" fill="#00682D"/>
<path d="M21.5168 19.1846C19.5207 20.1221 17.896 22.6364 17.896 24.6818C17.896 27.9204 21.3311 31.0739 24.8591 31.0739C28.387 31.0739 31.8222 27.9204 31.8222 24.6818C31.8222 22.5511 30.1975 20.1221 28.1085 19.142C25.8339 18.0767 23.745 18.0767 21.5168 19.1846ZM25.4161 22.4233C25.5554 23.9574 25.6482 24.0426 27.3194 24.1704C29.9653 24.3835 29.2226 25.5341 26.4374 25.5341C25.4626 25.5341 25.3233 25.7471 25.3233 27.0256C25.3233 27.8352 25.1376 28.517 24.8591 28.517C24.627 28.517 24.3949 27.8352 24.3949 27.0256C24.3949 25.7471 24.2556 25.5341 23.2808 25.5341C20.4955 25.5341 19.7528 24.3835 22.4452 24.1704C24.0699 24.0426 24.1628 23.9574 24.302 22.4233C24.3949 21.571 24.627 20.8466 24.8591 20.8466C25.0912 20.8466 25.3233 21.571 25.4161 22.4233Z" fill="#00682D"/>
</svg>
