<svg width="45" height="41" viewBox="0 0 45 41" fill="none" xmlns="http://www.w3.org/2000/svg">
<path d="M1.11414 7.03124C0.510675 8.48011 1.2534 8.94886 4.27074 8.94886H7.19524L8.6807 17.5142C9.51627 22.2869 10.4911 26.5483 10.8625 27.1023C11.9766 28.6364 14.3904 28.9773 24.1852 28.9773C33.655 28.9773 35.3261 28.679 34.6762 27.1449C34.4441 26.5483 33.0051 26.4631 23.9531 26.3352C18.2433 26.25 13.462 26.1222 13.3228 25.9943C13.2299 25.8665 12.9514 25.3551 12.8121 24.8011L12.4872 23.8636H22.3748C32.9587 23.8636 35.3261 23.5227 36.4402 21.9886C37.2294 20.8807 39.179 11.2926 38.8077 10.3977C38.5291 9.75851 36.858 9.58806 36.4866 10.142C36.3474 10.3551 35.8367 12.7415 35.3261 15.5114C34.8155 18.2812 34.2584 20.6676 34.1192 20.8381C33.9335 20.9659 29.0129 21.1364 23.1639 21.2216C13.787 21.3494 12.4872 21.2642 12.2551 20.6676C12.0694 20.2841 11.4195 16.9602 10.7232 13.2954L9.51627 6.60511L5.43126 6.47726C2.1354 6.39204 1.34625 6.47726 1.11414 7.03124Z" fill="#00682D"/>
<path d="M22.6069 6.64771C22.4212 6.81817 22.2819 8.30965 22.2819 9.92896V12.9119L21.2143 12.017C19.9609 10.9091 18.6611 10.8238 18.2433 11.7613C17.9184 12.5284 22.514 17.0454 23.6745 17.0454C24.8351 17.0454 29.4307 12.5284 29.1058 11.7613C28.688 10.7812 27.2489 10.9091 26.1813 11.9744C25.2993 12.8693 25.2993 12.8693 25.0672 9.75851C24.8815 6.98862 24.6958 6.6051 23.9066 6.47726C23.3496 6.39203 22.7926 6.47726 22.6069 6.64771Z" fill="#00682D"/>
<path d="M13.3227 32.3011C12.3015 33.3239 12.3479 34.6449 13.3691 35.4972C15.1331 36.9886 18.104 35.8807 18.104 33.7926C18.104 31.7898 14.8082 30.767 13.3227 32.3011Z" fill="#00682D"/>
<path d="M28.6416 32.3011C27.6203 33.3239 27.6667 34.6449 28.688 35.4972C30.452 36.9886 33.4229 35.8807 33.4229 33.7926C33.4229 31.7898 30.127 30.767 28.6416 32.3011Z" fill="#00682D"/>
</svg>
