<svg width="45" height="46" viewBox="0 0 45 46" fill="none" xmlns="http://www.w3.org/2000/svg">
<path d="M4.5 0.257397C3.58475 0.409939 2.21186 1.24892 1.44915 2.16418C0.152542 3.53706 0 5.2913 0 22.6811C0 41.3676 0 41.6727 1.75424 43.3506C3.4322 45.1049 3.73729 45.1049 22.5 45.1049C41.2627 45.1049 41.5678 45.1049 43.2458 43.3506C45 41.6727 45 41.3676 45 22.6049C45 3.84214 45 3.53706 43.2458 1.85909C41.5678 0.104855 41.1864 0.104855 23.7966 0.0285835C14.1102 -0.0476875 5.33898 0.0285835 4.5 0.257397ZM39.8898 5.21503C41.1864 6.51163 41.1864 38.6981 39.8898 39.9947C39.3559 40.5286 36.9915 40.9099 34.5508 40.9099H30.1271V34.0455V27.1811H32.7203C34.7034 27.1811 35.3898 26.7998 35.7712 25.4269C36.7627 21.6896 36.3814 21.0794 33.1017 21.0794H30.0508L30.2797 17.7998C30.5085 14.6727 30.5847 14.5964 33.5593 14.215C36.4576 13.8337 36.6102 13.6811 36.6102 11.1642C36.6102 8.64723 36.4576 8.49469 33.6356 8.26587C27.4576 7.73198 24.0254 11.1642 24.0254 18.0286C24.0254 21.0032 23.9492 21.0794 21.3559 21.0794C18.7627 21.0794 18.6864 21.1557 18.6864 24.1303C18.6864 27.1049 18.7627 27.1811 21.3559 27.1811H24.0254V34.0455V40.9099H15.0254C9.07627 40.9099 5.72034 40.6049 5.11017 39.9947C3.81356 38.6981 3.81356 6.51163 5.11017 5.21503C6.40678 3.91842 38.5932 3.91842 39.8898 5.21503Z" fill="#ADFFD1"/>
</svg>
