<svg width="45" height="45" viewBox="0 0 45 45" fill="none" xmlns="http://www.w3.org/2000/svg">
<path d="M9.02106 0.544689C1.44655 2.13534 -0.447078 7.36175 0.0831376 25.6163C0.386118 38.0385 1.21931 40.5381 5.99126 43.3407C8.4151 44.7041 9.93 44.8556 22.6552 44.8556C38.4102 44.8556 40.4553 44.3254 43.4851 39.1747C44.8485 36.7509 45 35.236 45 22.5108C45 9.78559 44.8485 8.27069 43.4851 5.84685C40.531 0.923416 38.2587 0.241711 24.5488 0.0144768C17.8832 -0.0612717 10.9147 0.165966 9.02106 0.544689ZM36.2893 5.16514C40.0766 6.52856 40.834 9.25538 40.834 22.3593C40.834 40.4624 40.6068 40.6896 22.6552 40.6896C4.70359 40.6896 4.47636 40.4624 4.47636 22.5108C4.47636 9.70985 5.15806 6.90728 8.56659 5.39238C11.5207 4.10471 32.6535 3.95322 36.2893 5.16514Z" fill="#ADFFD1"/>
<path d="M32.0476 9.93709C31.2901 11.9065 32.3506 13.5729 34.1684 13.2699C35.4561 13.1184 35.9106 12.5124 35.9106 11.149C35.9106 9.7856 35.4561 9.17964 34.1684 9.02815C33.1838 8.87666 32.2748 9.25538 32.0476 9.93709Z" fill="#ADFFD1"/>
<path d="M17.2015 12.7397C13.9445 14.406 11.2934 18.875 11.2934 22.5108C11.2934 26.298 13.9445 30.6155 17.353 32.3576C21.1403 34.2513 24.1701 34.2513 27.9573 32.3576C31.3659 30.6155 34.0169 26.298 34.0169 22.5108C34.0169 18.7235 31.3659 14.406 27.9573 12.6639C24.2458 10.7703 20.8373 10.7703 17.2015 12.7397ZM27.2756 17.8903C28.7905 19.4052 29.4722 20.8444 29.4722 22.5108C29.4722 25.7678 25.9122 29.3278 22.6552 29.3278C19.3981 29.3278 15.8381 25.7678 15.8381 22.5108C15.8381 20.8444 16.5198 19.4052 18.0347 17.8903C19.5496 16.3754 20.9888 15.6937 22.6552 15.6937C24.3216 15.6937 25.7607 16.3754 27.2756 17.8903Z" fill="#ADFFD1"/>
</svg>
