<svg width="136" height="121" viewBox="0 0 136 121" fill="none" xmlns="http://www.w3.org/2000/svg">
<path d="M56.0566 17.4731L52.9456 18.5837L52.8039 20.3177L52.1919 20.5387L52.7529 14.0391L53.3366 13.8351L57.8869 18.5101L57.2636 18.7311L56.0566 17.4731ZM55.6712 17.0707L53.2629 14.5491L52.9909 18.0284L55.6712 17.0707Z" fill="#00682D"/>
<path d="M63.0433 18.0043C62.4568 18.0425 61.9213 17.9462 61.434 17.7153C60.9466 17.4815 60.5528 17.1429 60.2553 16.7009C59.9606 16.2589 59.7963 15.7532 59.7623 15.1823C59.7241 14.6128 59.8246 14.0886 60.0626 13.6126C60.3035 13.1366 60.6534 12.7555 61.111 12.4679C61.5671 12.1818 62.0913 12.0189 62.6806 11.9806C63.1226 11.9551 63.5321 12.0033 63.9103 12.1279C64.2914 12.2526 64.6201 12.4481 64.8963 12.7116L64.5223 13.1366C64.0307 12.6989 63.4343 12.5005 62.7316 12.5416C62.2627 12.5728 61.842 12.7059 61.468 12.9439C61.0968 13.1791 60.8163 13.4879 60.6236 13.8733C60.431 14.2586 60.3488 14.6822 60.38 15.1426C60.4055 15.6073 60.5386 16.0195 60.7766 16.3779C61.0146 16.7378 61.332 17.0126 61.7286 17.2053C62.1281 17.3951 62.5631 17.4744 63.032 17.4433C63.7375 17.4022 64.307 17.1302 64.7376 16.6273L65.1626 17.0013C64.9204 17.3002 64.6158 17.5368 64.2503 17.7096C63.8876 17.8796 63.4853 17.9788 63.0433 18.0043Z" fill="#00682D"/>
<path d="M72.3903 18.5059L72.277 19.0385L68.1743 18.1545L69.4266 12.3575L73.4046 13.2132L73.2856 13.7402L69.9196 13.0149L69.4776 15.0775L72.481 15.7235L72.3676 16.2449L69.3643 15.5989L68.8996 17.7522L72.3903 18.5059Z" fill="#00682D"/>
<path d="M76.6411 20.9592C76.2515 20.7623 75.9073 20.5087 75.6098 20.1998C75.3151 19.8896 75.1196 19.5822 75.0261 19.2762L75.4681 18.9588C75.5616 19.2464 75.7373 19.5298 75.9951 19.8088C76.2515 20.0879 76.5476 20.3132 76.8848 20.4832C77.3608 20.7283 77.7589 20.8246 78.0805 20.7722C78.4049 20.7226 78.6386 20.5583 78.7831 20.2792C78.8922 20.0638 78.9135 19.8613 78.8455 19.6728C78.7803 19.4844 78.6726 19.3088 78.5225 19.1458C78.3751 18.9801 78.1541 18.7718 77.8595 18.5225C77.511 18.2165 77.2432 17.9587 77.0548 17.7462C76.865 17.5308 76.7346 17.2858 76.6638 17.0095C76.5958 16.7304 76.644 16.4287 76.8111 16.1028C76.9471 15.8393 77.1398 15.6325 77.3891 15.4852C77.6413 15.3378 77.9473 15.2727 78.3071 15.2868C78.6655 15.3024 79.0622 15.4214 79.4971 15.6438C79.7989 15.7954 80.0723 15.9881 80.3188 16.2218C80.5681 16.4528 80.758 16.695 80.8911 16.9472L80.4775 17.2928C80.3301 17.0322 80.1502 16.8041 79.9391 16.6072C79.7266 16.4074 79.4985 16.2445 79.2535 16.1198C78.7888 15.8818 78.3935 15.794 78.0691 15.8535C77.7475 15.9102 77.5152 16.0802 77.3721 16.3635C77.2616 16.576 77.2375 16.78 77.2985 16.9755C77.3622 17.1682 77.4741 17.3495 77.6328 17.5195C77.7915 17.6867 78.0139 17.8921 78.3015 18.1372C78.6415 18.4318 78.905 18.6868 79.0948 18.9022C79.2875 19.1147 79.4178 19.3583 79.4858 19.6332C79.5566 19.9052 79.5113 20.2013 79.3498 20.5228C79.2095 20.7906 79.0112 20.996 78.7548 21.1405C78.5012 21.2878 78.1938 21.3502 77.8311 21.3275C77.4713 21.3048 77.0746 21.1816 76.6411 20.9592Z" fill="#00682D"/>
<path d="M82.3092 24.8199C81.9806 24.5281 81.7114 24.1966 81.5046 23.8226C81.2963 23.4486 81.183 23.1001 81.1646 22.7799L81.6689 22.5816C81.6916 22.8848 81.7907 23.2021 81.9692 23.5393C82.1463 23.875 82.3772 24.1683 82.6606 24.4176C83.0601 24.7689 83.4256 24.9588 83.7542 24.9899C84.0829 25.0197 84.3506 24.9177 84.5589 24.6839C84.7176 24.5054 84.787 24.3156 84.7686 24.1116C84.753 23.9104 84.6921 23.7121 84.5872 23.5166C84.481 23.3239 84.3181 23.0689 84.0999 22.7516C83.8421 22.3748 83.648 22.0589 83.5162 21.8053C83.3831 21.5531 83.3179 21.2825 83.3179 20.9949C83.3207 20.7088 83.444 20.4269 83.6862 20.1506C83.8817 19.9282 84.1197 19.7766 84.4002 19.6973C84.6836 19.6179 84.9966 19.6321 85.3409 19.7369C85.6837 19.8432 86.0379 20.0571 86.4006 20.3773C86.6527 20.6011 86.8709 20.8561 87.0522 21.1423C87.2364 21.4256 87.3611 21.7075 87.4262 21.9866L86.9446 22.2246C86.8652 21.9342 86.7462 21.6664 86.5876 21.4199C86.4317 21.1749 86.2532 20.9609 86.0492 20.7796C85.6596 20.4368 85.2984 20.2526 84.9669 20.2299C84.6382 20.2044 84.3691 20.3093 84.1622 20.5473C84.0036 20.7258 83.9299 20.9156 83.9412 21.1196C83.9554 21.3208 84.0177 21.5219 84.1282 21.7259C84.2416 21.9271 84.4059 22.1835 84.6212 22.4966C84.8776 22.8635 85.0717 23.1724 85.2049 23.4259C85.3366 23.6824 85.4032 23.9501 85.4032 24.2306C85.4032 24.5139 85.2814 24.7916 85.0406 25.0636C84.8394 25.2903 84.5986 25.4433 84.3152 25.5226C84.0319 25.6019 83.7174 25.5849 83.3746 25.4716C83.0303 25.3583 82.6747 25.1401 82.3092 24.8199Z" fill="#00682D"/>
<path d="M87.3216 30.6984C87.0071 30.2026 86.8342 29.6812 86.8002 29.1344C86.7691 28.5904 86.8753 28.0832 87.1176 27.6157C87.3626 27.144 87.7267 26.7544 88.2112 26.4484C88.6901 26.1424 89.1944 25.9823 89.7242 25.9667C90.2569 25.9483 90.7612 26.0716 91.2372 26.3351C91.7132 26.5957 92.1071 26.974 92.4216 27.4684C92.7346 27.9628 92.9089 28.4785 92.9429 29.0154C92.9769 29.5551 92.8706 30.0609 92.6256 30.5341C92.3833 31.0101 92.0221 31.4011 91.5432 31.7071C91.0587 32.0131 90.5487 32.1746 90.0132 32.1944C89.4806 32.2128 88.9762 32.0924 88.5002 31.8317C88.0271 31.5711 87.6346 31.1928 87.3216 30.6984ZM87.7976 30.3981C88.0469 30.7905 88.3614 31.0908 88.7439 31.2991C89.1292 31.5059 89.5372 31.6008 89.9679 31.5824C90.4014 31.5668 90.8151 31.4351 91.2089 31.1857C91.5971 30.9364 91.8917 30.6191 92.0929 30.2337C92.2969 29.8512 92.3847 29.4432 92.3592 29.0097C92.3366 28.5748 92.2006 28.1611 91.9512 27.7687C91.7019 27.3721 91.3846 27.0703 90.9992 26.8621C90.6167 26.651 90.2087 26.5546 89.7752 26.5731C89.3403 26.5886 88.9281 26.7204 88.5399 26.9697C88.1461 27.2191 87.85 27.535 87.6502 27.9161C87.4491 28.3014 87.3612 28.7108 87.3839 29.1457C87.4094 29.5835 87.5482 30.0014 87.7976 30.3981Z" fill="#00682D"/>
<path d="M91.1654 40.0091L92.6501 38.1958C92.5892 38.0555 92.5382 37.9039 92.4971 37.7424L92.0778 36.2068L90.2644 36.6998L90.1001 36.0991L95.8234 34.5408L96.4071 36.6771C96.6026 37.4095 96.5842 38.0286 96.3504 38.5358C96.1153 39.0458 95.6931 39.3829 95.0811 39.5501C94.6306 39.6748 94.2212 39.6649 93.8514 39.5218C93.4803 39.3815 93.1714 39.1209 92.9221 38.7398L91.3411 40.6721L91.1654 40.0091ZM93.0071 37.5894C93.1615 38.1561 93.4052 38.5542 93.7381 38.7851C94.0696 39.0189 94.4634 39.0741 94.9168 38.9494C95.3772 38.8248 95.6903 38.5769 95.8574 38.2071C96.0274 37.8402 96.0345 37.3741 95.8801 36.8074L95.4664 35.2831L92.5934 36.0651L93.0071 37.5894Z" fill="#00682D"/>
<path d="M97.4967 43.5618L97.525 44.1851L91.5977 44.4401L91.5693 43.8168L97.4967 43.5618Z" fill="#00682D"/>
<path d="M91.0761 50.4377C91.2206 49.6855 91.5493 49.1401 92.0621 48.8001C92.5749 48.4629 93.2464 48.3751 94.0738 48.5337L97.4114 49.1741L97.2924 49.7861L93.9831 49.1514C93.3031 49.0225 92.7662 49.0792 92.3738 49.3214C91.9842 49.5622 91.7363 49.9702 91.6258 50.5454C91.5124 51.1305 91.5918 51.6079 91.8638 51.9791C92.1386 52.3488 92.6174 52.5982 93.2974 52.7271L96.6068 53.3617L96.4934 53.9624L93.1558 53.3221C92.3284 53.1634 91.7391 52.8319 91.3878 52.3304C91.0336 51.8275 90.9288 51.1971 91.0761 50.4377Z" fill="#00682D"/>
<path d="M91.7259 64.3684L86.5579 61.45L86.8582 60.9287L90.9949 63.2634L88.6602 59.2684L88.8075 59.0077L93.4032 58.934L89.2949 56.6107L89.5895 56.0894L94.7575 59.0077L94.5025 59.4554L89.4025 59.5347L91.9809 63.9207L91.7259 64.3684Z" fill="#00682D"/>
<path d="M31.397 85.4687H46.5187C61.7338 85.4687 74.1819 73.155 74.1819 57.9017C74.1819 42.6471 61.7338 30.3333 46.5187 30.3333H31.397V85.4687ZM37.2056 79.5883V36.2152H46.4267C58.6908 36.2152 68.2798 45.4949 68.2798 57.9017C68.2798 70.3071 58.6908 79.5883 46.4267 79.5883H37.2056Z" fill="#00682D"/>
<path d="M30.9556 19.3768H39.8267V85.9063H30.9556V19.3768Z" fill="white"/>
<path d="M49.1003 42.5039H56.4925V86.8569H49.1003V42.5039Z" fill="white"/>
<path d="M44.6281 54.9097C42.3798 54.9097 40.2693 55.7342 38.5657 57.0828V30.3333H34.3435V85.4813H38.5657V66.2997C38.5657 62.4775 41.2904 59.5563 44.6281 59.5563C47.9644 59.5563 50.7573 62.4775 50.7573 66.2997V85.4813H54.9113V66.2997C54.9113 59.9303 50.3478 54.9097 44.6281 54.9097Z" fill="#001409"/>
</svg>
