<svg width="32" height="30" viewBox="0 0 32 30" fill="none" xmlns="http://www.w3.org/2000/svg">
<path d="M7.64766 1.77556C5.23379 2.79829 2.49498 5.3125 1.38088 7.5284C0.220369 9.91477 0.220369 14.6023 1.38088 16.9886C2.49498 19.2045 5.23379 21.7187 7.64766 22.7415C10.5722 23.9347 15.4927 23.8494 18.4172 22.4858L20.6918 21.4205L25.3803 25.7244C28.6298 28.7074 30.3473 29.9858 30.9508 29.8579C32.9469 29.517 32.2041 28.1534 27.4692 23.8068L22.7808 19.5028L23.9413 17.4148C24.8697 15.7528 25.1018 14.6875 25.1018 12.3011C25.1018 8.72159 24.127 6.50568 21.6203 4.16193C19.0671 1.86079 16.6533 0.965906 12.8003 0.965906C10.6186 0.965906 8.90102 1.2642 7.64766 1.77556ZM17.1175 4.33238C20.5062 5.9517 22.3166 8.67897 22.3166 12.2585C22.3166 17.4148 18.4172 20.9943 12.8003 20.9943C7.22988 20.9943 3.28413 17.4148 3.28413 12.2585C3.28413 8.63636 5.09453 5.9517 8.62249 4.24715C10.6186 3.26704 14.9821 3.30965 17.1175 4.33238Z" fill="#00682D"/>
</svg>

