<svg width="45" height="45" viewBox="0 0 45 45" fill="none" xmlns="http://www.w3.org/2000/svg">
<path d="M15.2022 1.07864C5.49896 4.58831 -0.694588 14.1539 0.0624004 24.27C0.750572 32.3216 5.56777 39.4098 12.9312 42.9883C16.2344 44.6399 17.6108 44.9152 22.6344 44.9152C27.6581 44.9152 29.0344 44.6399 32.3376 42.9883C36.9484 40.7861 41.4215 36.1754 43.486 31.6335C44.5871 29.156 44.9312 27.0227 45 22.5496C45 17.5259 44.7247 16.1496 43.0731 12.8464C40.871 8.23562 36.1914 3.7625 31.7183 1.69799C27.1764 -0.29771 19.8817 -0.572979 15.2022 1.07864ZM27.5893 4.65713C36.9484 7.27218 43.0731 17.9388 40.5957 27.1603C39.357 31.7023 35.7785 36.313 31.8559 38.5152C28.2086 40.5797 22.6344 41.6119 19.6753 40.8549L17.9549 40.442L18.9871 36.8636C19.6065 34.8679 20.157 33.1474 20.2258 33.0098C20.2946 32.941 21.2581 33.3539 22.428 33.9732C28.4151 37.4141 36.3979 30.1883 36.3979 21.3109C36.3979 14.9109 29.8602 8.78616 22.9097 8.78616C22.1527 8.78616 19.9506 9.26788 18.0237 9.81841C12.1054 11.5388 8.25164 17.4571 9.07745 23.4442C9.49035 26.541 11.486 29.6378 13.3441 29.9818C14.3764 30.1883 14.514 29.913 14.1011 27.9173C12.9312 22.2743 12.8624 19.9345 14.0323 17.8012C15.7527 14.3603 18.8495 12.7775 23.185 13.1216C27.8645 13.4657 30.8237 16.0808 31.3742 20.4163C32.3376 27.5044 26.0753 34.3173 22.3592 30.1883C21.2581 28.9496 21.2581 28.6055 22.2215 25.2335C23.6667 20.3474 23.5979 18.627 21.8774 17.7324C20.7764 17.113 20.0882 17.1818 18.7807 18.0765C17.1291 19.1087 16.785 20.3474 17.0602 24.27C17.1979 26.1969 14.8581 38.1023 14.2387 38.7904C13.4129 39.5474 8.18282 34.5926 6.39358 31.3582C4.67315 28.2614 4.39788 26.9539 4.39788 22.5496C4.39788 18.0765 4.67315 16.9066 6.53121 13.6034C10.7291 6.10229 19.4688 2.45498 27.5893 4.65713Z" fill="#ADFFD1"/>
</svg>
